<?xml version="1.0" encoding="UTF-8" standalone="no"?>
<svg
   xmlns:dc="http://purl.org/dc/elements/1.1/"
   xmlns:cc="http://creativecommons.org/ns#"
   xmlns:rdf="http://www.w3.org/1999/02/22-rdf-syntax-ns#"
   xmlns:svg="http://www.w3.org/2000/svg"
   xmlns="http://www.w3.org/2000/svg"
   xmlns:sodipodi="http://sodipodi.sourceforge.net/DTD/sodipodi-0.dtd"
   xmlns:inkscape="http://www.inkscape.org/namespaces/inkscape"
   inkscape:version="1.0 (4035a4f, 2020-05-01)"
   inkscape:export-ydpi="96"
   inkscape:export-xdpi="96"
   id="svg78"
   version="1.1"
   height="512"
   width="512"
   fill="#000000"
   viewBox="0 0 256 256">
  <metadata
     id="metadata84">
    <rdf:RDF>
      <cc:Work
         rdf:about="">
        <dc:format>image/svg+xml</dc:format>
        <dc:type
           rdf:resource="http://purl.org/dc/dcmitype/StillImage" />
        <dc:title></dc:title>
      </cc:Work>
    </rdf:RDF>
  </metadata>
  <defs
     id="defs82" />
  <sodipodi:namedview
     inkscape:showpageshadow="true"
     showborder="false"
     inkscape:current-layer="svg78"
     inkscape:window-maximized="1"
     inkscape:window-y="23"
     inkscape:window-x="0"
     inkscape:cy="321.79654"
     inkscape:cx="312.55573"
     inkscape:zoom="0.96366011"
     showgrid="false"
     id="namedview80"
     inkscape:window-height="1005"
     inkscape:window-width="1680"
     inkscape:pageshadow="2"
     inkscape:pageopacity="0"
     guidetolerance="10"
     gridtolerance="10"
     objecttolerance="10"
     borderopacity="1"
     bordercolor="#666666"
     pagecolor="#ffffff" />
  <rect
     y="0"
     x="0.0099999998"
     height="256"
     width="256"
     id="rect86"
     style="fill:#98de6a;fill-opacity:1;fill-rule:evenodd;stroke-width:5.54293" />
  <path
     style="stroke-width:10.6667"
     id="path74"
     fill="none"
     d="m 0.01,0 h 256 v 256 h -256 z" />
  <path
     style="fill:#ffffff;stroke-width:7.72468"
     id="path76"
     d="M 127.90333,66.202566 V 43.02853 L 97.004618,73.927246 127.90333,104.82596 V 81.651924 c 25.5687,0 46.34808,20.779386 46.34808,46.348076 0,7.80193 -1.93117,15.21762 -5.40728,21.6291 l 11.27803,11.27803 c 6.02525,-9.50136 9.5786,-20.77939 9.5786,-32.90713 0,-34.143082 -27.65434,-61.797434 -61.79743,-61.797434 z m 0,108.145504 c -25.56868,0 -46.348072,-20.77938 -46.348072,-46.34807 0,-7.80193 1.93117,-15.21762 5.407275,-21.6291 L 75.684502,95.092867 C 69.659252,104.59422 66.1059,115.87226 66.1059,128 c 0,34.14308 27.654352,61.79743 61.79743,61.79743 v 23.17404 l 30.89871,-30.89871 -30.89871,-30.89872 z" />
</svg>
